<svg id="visual" viewBox="0 0 900 450" width="900" height="450" xmlns="http://www.w3.org/2000/svg" xmlns:xlink="http://www.w3.org/1999/xlink" version="1.1"><rect x="0" y="0" width="900" height="450" fill="#001220"></rect><path d="M0 202L21.5 188.2C43 174.3 86 146.7 128.8 139.3C171.7 132 214.3 145 257.2 141C300 137 343 116 385.8 119.8C428.7 123.7 471.3 152.3 514.2 159C557 165.7 600 150.3 642.8 143C685.7 135.7 728.3 136.3 771.2 141.7C814 147 857 157 878.5 162L900 167L900 451L878.5 451C857 451 814 451 771.2 451C728.3 451 685.7 451 642.8 451C600 451 557 451 514.2 451C471.3 451 428.7 451 385.8 451C343 451 300 451 257.2 451C214.3 451 171.7 451 128.8 451C86 451 43 451 21.5 451L0 451Z" fill="#339999"></path><path d="M0 214L21.5 203.7C43 193.3 86 172.7 128.8 171.5C171.7 170.3 214.3 188.7 257.2 202.3C300 216 343 225 385.8 231.3C428.7 237.7 471.3 241.3 514.2 229C557 216.7 600 188.3 642.8 172C685.7 155.7 728.3 151.3 771.2 162.3C814 173.3 857 199.7 878.5 212.8L900 226L900 451L878.5 451C857 451 814 451 771.2 451C728.3 451 685.7 451 642.8 451C600 451 557 451 514.2 451C471.3 451 428.7 451 385.8 451C343 451 300 451 257.2 451C214.3 451 171.7 451 128.8 451C86 451 43 451 21.5 451L0 451Z" fill="#339999"></path><path d="M0 275L21.5 269.5C43 264 86 253 128.8 255C171.7 257 214.3 272 257.2 268.7C300 265.3 343 243.7 385.8 239.7C428.7 235.7 471.3 249.3 514.2 258C557 266.7 600 270.3 642.8 270.7C685.7 271 728.3 268 771.2 271C814 274 857 283 878.5 287.5L900 292L900 451L878.5 451C857 451 814 451 771.2 451C728.3 451 685.7 451 642.8 451C600 451 557 451 514.2 451C471.3 451 428.7 451 385.8 451C343 451 300 451 257.2 451C214.3 451 171.7 451 128.8 451C86 451 43 451 21.5 451L0 451Z" fill="#339999"></path><path d="M0 356L21.5 347.3C43 338.7 86 321.3 128.8 312.3C171.7 303.3 214.3 302.7 257.2 309.3C300 316 343 330 385.8 332.3C428.7 334.7 471.3 325.3 514.2 324.8C557 324.3 600 332.7 642.8 325.5C685.7 318.3 728.3 295.7 771.2 292.8C814 290 857 307 878.5 315.5L900 324L900 451L878.5 451C857 451 814 451 771.2 451C728.3 451 685.7 451 642.8 451C600 451 557 451 514.2 451C471.3 451 428.7 451 385.8 451C343 451 300 451 257.2 451C214.3 451 171.7 451 128.8 451C86 451 43 451 21.5 451L0 451Z" fill="#339999"></path><path d="M0 363L21.5 370.2C43 377.3 86 391.7 128.8 395.3C171.7 399 214.3 392 257.2 388.2C300 384.3 343 383.7 385.8 378.3C428.7 373 471.3 363 514.2 366.7C557 370.3 600 387.7 642.8 397C685.7 406.3 728.3 407.7 771.2 401.8C814 396 857 383 878.5 376.5L900 370L900 451L878.5 451C857 451 814 451 771.2 451C728.3 451 685.7 451 642.8 451C600 451 557 451 514.2 451C471.3 451 428.7 451 385.8 451C343 451 300 451 257.2 451C214.3 451 171.7 451 128.8 451C86 451 43 451 21.5 451L0 451Z" fill="#339999"></path></svg>